<mxfile host="app.diagrams.net" modified="2021-03-05T09:23:11.102Z" agent="5.0 (Macintosh; Intel Mac OS X 10_15_7) AppleWebKit/537.36 (KHTML, like Gecko) Chrome/88.0.4324.150 Safari/537.36" etag="gQsOWWTttMKluM0jfQqf" version="14.4.3" type="github">
  <diagram id="EE9SntkFH1ej6d5t27QA" name="Page-1">
    <mxGraphModel dx="3073" dy="1346" grid="1" gridSize="10" guides="1" tooltips="1" connect="1" arrows="1" fold="1" page="1" pageScale="1" pageWidth="827" pageHeight="1169" math="0" shadow="0">
      <root>
        <mxCell id="0" />
        <mxCell id="1" parent="0" />
        <mxCell id="E3v42q9btfGhV8WlOkZw-64" value="" style="rounded=0;whiteSpace=wrap;html=1;" vertex="1" parent="1">
          <mxGeometry x="-430" y="110" width="720" height="1480" as="geometry" />
        </mxCell>
        <mxCell id="E3v42q9btfGhV8WlOkZw-61" value="" style="rounded=0;whiteSpace=wrap;html=1;dashed=1;" vertex="1" parent="1">
          <mxGeometry x="-410" y="460" width="680" height="1110" as="geometry" />
        </mxCell>
        <mxCell id="E3v42q9btfGhV8WlOkZw-56" value="" style="rounded=0;whiteSpace=wrap;html=1;dashed=1;" vertex="1" parent="1">
          <mxGeometry x="-350" y="1380" width="600" height="150" as="geometry" />
        </mxCell>
        <mxCell id="E3v42q9btfGhV8WlOkZw-51" value="" style="rounded=0;whiteSpace=wrap;html=1;dashed=1;" vertex="1" parent="1">
          <mxGeometry y="1390.75" width="230" height="130" as="geometry" />
        </mxCell>
        <mxCell id="E3v42q9btfGhV8WlOkZw-37" value="" style="rounded=0;whiteSpace=wrap;html=1;dashed=1;" vertex="1" parent="1">
          <mxGeometry x="-310" y="640" width="340" height="150" as="geometry" />
        </mxCell>
        <mxCell id="l7BpPZrqb6z0wlt-yfZw-1" value="" style="points=[[0,0,0],[0.25,0,0],[0.5,0,0],[0.75,0,0],[1,0,0],[0,1,0],[0.25,1,0],[0.5,1,0],[0.75,1,0],[1,1,0],[0,0.25,0],[0,0.5,0],[0,0.75,0],[1,0.25,0],[1,0.5,0],[1,0.75,0]];outlineConnect=0;fontColor=#232F3E;gradientColor=#4D72F3;gradientDirection=north;fillColor=#3334B9;strokeColor=#ffffff;dashed=0;verticalLabelPosition=bottom;verticalAlign=top;align=center;html=1;fontSize=12;fontStyle=0;aspect=fixed;shape=mxgraph.aws4.resourceIcon;resIcon=mxgraph.aws4.documentdb_with_mongodb_compatibility;" parent="1" vertex="1">
          <mxGeometry x="18" y="1410.25" width="78" height="78" as="geometry" />
        </mxCell>
        <mxCell id="l7BpPZrqb6z0wlt-yfZw-2" value="" style="points=[[0,0,0],[0.25,0,0],[0.5,0,0],[0.75,0,0],[1,0,0],[0,1,0],[0.25,1,0],[0.5,1,0],[0.75,1,0],[1,1,0],[0,0.25,0],[0,0.5,0],[0,0.75,0],[1,0.25,0],[1,0.5,0],[1,0.75,0]];outlineConnect=0;fontColor=#232F3E;gradientColor=#F78E04;gradientDirection=north;fillColor=#D05C17;strokeColor=#ffffff;dashed=0;verticalLabelPosition=bottom;verticalAlign=top;align=center;html=1;fontSize=12;fontStyle=0;aspect=fixed;shape=mxgraph.aws4.resourceIcon;resIcon=mxgraph.aws4.ec2;" parent="1" vertex="1">
          <mxGeometry x="-290" y="1200" width="78" height="78" as="geometry" />
        </mxCell>
        <mxCell id="l7BpPZrqb6z0wlt-yfZw-3" value="" style="points=[[0,0,0],[0.25,0,0],[0.5,0,0],[0.75,0,0],[1,0,0],[0,1,0],[0.25,1,0],[0.5,1,0],[0.75,1,0],[1,1,0],[0,0.25,0],[0,0.5,0],[0,0.75,0],[1,0.25,0],[1,0.5,0],[1,0.75,0]];outlineConnect=0;fontColor=#232F3E;gradientColor=#F78E04;gradientDirection=north;fillColor=#D05C17;strokeColor=#ffffff;dashed=0;verticalLabelPosition=bottom;verticalAlign=top;align=center;html=1;fontSize=12;fontStyle=0;aspect=fixed;shape=mxgraph.aws4.resourceIcon;resIcon=mxgraph.aws4.auto_scaling2;" parent="1" vertex="1">
          <mxGeometry x="97" y="1200" width="78" height="78" as="geometry" />
        </mxCell>
        <mxCell id="l7BpPZrqb6z0wlt-yfZw-4" value="EC2" style="text;html=1;align=center;verticalAlign=middle;resizable=0;points=[];autosize=1;" parent="1" vertex="1">
          <mxGeometry x="-271" y="1285" width="40" height="20" as="geometry" />
        </mxCell>
        <mxCell id="l7BpPZrqb6z0wlt-yfZw-5" value="DocumentDB" style="text;html=1;align=center;verticalAlign=middle;resizable=0;points=[];autosize=1;" parent="1" vertex="1">
          <mxGeometry x="12" y="1496.75" width="90" height="20" as="geometry" />
        </mxCell>
        <mxCell id="l7BpPZrqb6z0wlt-yfZw-6" value="EC2 Auto Scaling" style="text;html=1;align=center;verticalAlign=middle;resizable=0;points=[];autosize=1;" parent="1" vertex="1">
          <mxGeometry x="80" y="1293" width="110" height="20" as="geometry" />
        </mxCell>
        <mxCell id="l7BpPZrqb6z0wlt-yfZw-9" value="" style="points=[[0,0,0],[0.25,0,0],[0.5,0,0],[0.75,0,0],[1,0,0],[0,1,0],[0.25,1,0],[0.5,1,0],[0.75,1,0],[1,1,0],[0,0.25,0],[0,0.5,0],[0,0.75,0],[1,0.25,0],[1,0.5,0],[1,0.75,0]];outlineConnect=0;fontColor=#232F3E;gradientColor=#945DF2;gradientDirection=north;fillColor=#5A30B5;strokeColor=#ffffff;dashed=0;verticalLabelPosition=bottom;verticalAlign=top;align=center;html=1;fontSize=12;fontStyle=0;aspect=fixed;shape=mxgraph.aws4.resourceIcon;resIcon=mxgraph.aws4.api_gateway;" parent="1" vertex="1">
          <mxGeometry x="-180" y="862" width="78" height="78" as="geometry" />
        </mxCell>
        <mxCell id="l7BpPZrqb6z0wlt-yfZw-11" value="" style="points=[[0,0,0],[0.25,0,0],[0.5,0,0],[0.75,0,0],[1,0,0],[0,1,0],[0.25,1,0],[0.5,1,0],[0.75,1,0],[1,1,0],[0,0.25,0],[0,0.5,0],[0,0.75,0],[1,0.25,0],[1,0.5,0],[1,0.75,0]];outlineConnect=0;fontColor=#232F3E;gradientColor=#945DF2;gradientDirection=north;fillColor=#5A30B5;strokeColor=#ffffff;dashed=0;verticalLabelPosition=bottom;verticalAlign=top;align=center;html=1;fontSize=12;fontStyle=0;aspect=fixed;shape=mxgraph.aws4.resourceIcon;resIcon=mxgraph.aws4.vpc;" parent="1" vertex="1">
          <mxGeometry x="102" y="873.78" width="78" height="78" as="geometry" />
        </mxCell>
        <mxCell id="l7BpPZrqb6z0wlt-yfZw-12" value="VPC" style="text;html=1;align=center;verticalAlign=middle;resizable=0;points=[];autosize=1;" parent="1" vertex="1">
          <mxGeometry x="122" y="963.78" width="40" height="20" as="geometry" />
        </mxCell>
        <mxCell id="l7BpPZrqb6z0wlt-yfZw-13" value="" style="shape=image;html=1;verticalAlign=top;verticalLabelPosition=bottom;labelBackgroundColor=#ffffff;imageAspect=0;aspect=fixed;image=https://cdn4.iconfinder.com/data/icons/logos-brands-5/24/flask-128.png" parent="1" vertex="1">
          <mxGeometry x="-150" y="1408.25" width="80" height="80" as="geometry" />
        </mxCell>
        <mxCell id="l7BpPZrqb6z0wlt-yfZw-15" value="" style="outlineConnect=0;fontColor=#232F3E;gradientColor=none;fillColor=#3334B9;strokeColor=none;dashed=0;verticalLabelPosition=bottom;verticalAlign=top;align=center;html=1;fontSize=12;fontStyle=0;aspect=fixed;pointerEvents=1;shape=mxgraph.aws4.elasticache_for_redis;" parent="1" vertex="1">
          <mxGeometry x="135" y="1414.25" width="78" height="69" as="geometry" />
        </mxCell>
        <mxCell id="l7BpPZrqb6z0wlt-yfZw-16" value="" style="points=[[0,0,0],[0.25,0,0],[0.5,0,0],[0.75,0,0],[1,0,0],[0,1,0],[0.25,1,0],[0.5,1,0],[0.75,1,0],[1,1,0],[0,0.25,0],[0,0.5,0],[0,0.75,0],[1,0.25,0],[1,0.5,0],[1,0.75,0]];points=[[0,0,0],[0.25,0,0],[0.5,0,0],[0.75,0,0],[1,0,0],[0,1,0],[0.25,1,0],[0.5,1,0],[0.75,1,0],[1,1,0],[0,0.25,0],[0,0.5,0],[0,0.75,0],[1,0.25,0],[1,0.5,0],[1,0.75,0]];outlineConnect=0;fontColor=#232F3E;gradientColor=#F34482;gradientDirection=north;fillColor=#BC1356;strokeColor=#ffffff;dashed=0;verticalLabelPosition=bottom;verticalAlign=top;align=center;html=1;fontSize=12;fontStyle=0;aspect=fixed;shape=mxgraph.aws4.resourceIcon;resIcon=mxgraph.aws4.cloudwatch_2;" parent="1" vertex="1">
          <mxGeometry x="102" y="1003.78" width="78" height="78" as="geometry" />
        </mxCell>
        <mxCell id="l7BpPZrqb6z0wlt-yfZw-17" value="CloudWatch" style="text;html=1;align=center;verticalAlign=middle;resizable=0;points=[];autosize=1;" parent="1" vertex="1">
          <mxGeometry x="102" y="1090.78" width="80" height="20" as="geometry" />
        </mxCell>
        <mxCell id="l7BpPZrqb6z0wlt-yfZw-18" value="" style="points=[[0,0,0],[0.25,0,0],[0.5,0,0],[0.75,0,0],[1,0,0],[0,1,0],[0.25,1,0],[0.5,1,0],[0.75,1,0],[1,1,0],[0,0.25,0],[0,0.5,0],[0,0.75,0],[1,0.25,0],[1,0.5,0],[1,0.75,0]];outlineConnect=0;fontColor=#232F3E;gradientColor=#F54749;gradientDirection=north;fillColor=#C7131F;strokeColor=#ffffff;dashed=0;verticalLabelPosition=bottom;verticalAlign=top;align=center;html=1;fontSize=12;fontStyle=0;aspect=fixed;shape=mxgraph.aws4.resourceIcon;resIcon=mxgraph.aws4.amplify;" parent="1" vertex="1">
          <mxGeometry x="-78" y="661" width="90" height="90" as="geometry" />
        </mxCell>
        <mxCell id="l7BpPZrqb6z0wlt-yfZw-20" value="" style="pointerEvents=1;shadow=0;dashed=0;html=1;strokeColor=none;fillColor=#505050;labelPosition=center;verticalLabelPosition=bottom;verticalAlign=top;outlineConnect=0;align=center;shape=mxgraph.office.users.user;" parent="1" vertex="1">
          <mxGeometry x="-147" y="138" width="46" height="50" as="geometry" />
        </mxCell>
        <mxCell id="l7BpPZrqb6z0wlt-yfZw-21" value="" style="pointerEvents=1;shadow=0;dashed=0;html=1;strokeColor=none;labelPosition=center;verticalLabelPosition=bottom;verticalAlign=top;outlineConnect=0;align=center;shape=mxgraph.office.users.user;fillColor=#2072B8;" parent="1" vertex="1">
          <mxGeometry x="-157" y="147" width="46" height="50" as="geometry" />
        </mxCell>
        <mxCell id="l7BpPZrqb6z0wlt-yfZw-22" value="" style="pointerEvents=1;shadow=0;dashed=0;html=1;strokeColor=none;labelPosition=center;verticalLabelPosition=bottom;verticalAlign=top;outlineConnect=0;align=center;shape=mxgraph.office.users.user;fillColor=#DA4026;" parent="1" vertex="1">
          <mxGeometry x="-167" y="159" width="46" height="50" as="geometry" />
        </mxCell>
        <mxCell id="l7BpPZrqb6z0wlt-yfZw-23" value="" style="pointerEvents=1;shadow=0;dashed=0;html=1;strokeColor=none;labelPosition=center;verticalLabelPosition=bottom;verticalAlign=top;outlineConnect=0;align=center;shape=mxgraph.office.users.user;fillColor=#7FBA42;" parent="1" vertex="1">
          <mxGeometry x="-177" y="167" width="46" height="50" as="geometry" />
        </mxCell>
        <mxCell id="E3v42q9btfGhV8WlOkZw-1" value="Users" style="text;html=1;align=center;verticalAlign=middle;resizable=0;points=[];autosize=1;" vertex="1" parent="1">
          <mxGeometry x="-168" y="223" width="50" height="20" as="geometry" />
        </mxCell>
        <mxCell id="E3v42q9btfGhV8WlOkZw-2" value="" style="endArrow=classic;html=1;" edge="1" parent="1">
          <mxGeometry width="50" height="50" relative="1" as="geometry">
            <mxPoint x="-140.75" y="253" as="sourcePoint" />
            <mxPoint x="-140.75" y="303" as="targetPoint" />
          </mxGeometry>
        </mxCell>
        <mxCell id="E3v42q9btfGhV8WlOkZw-4" value="" style="outlineConnect=0;dashed=0;verticalLabelPosition=bottom;verticalAlign=top;align=center;html=1;shape=mxgraph.aws3.internet_3;fillColor=#D2D3D3;gradientColor=none;" vertex="1" parent="1">
          <mxGeometry x="-180" y="318" width="79.5" height="54" as="geometry" />
        </mxCell>
        <mxCell id="E3v42q9btfGhV8WlOkZw-5" value="Internet" style="text;html=1;align=center;verticalAlign=middle;resizable=0;points=[];autosize=1;" vertex="1" parent="1">
          <mxGeometry x="-174" y="384" width="60" height="20" as="geometry" />
        </mxCell>
        <mxCell id="E3v42q9btfGhV8WlOkZw-7" value="" style="points=[[0,0,0],[0.25,0,0],[0.5,0,0],[0.75,0,0],[1,0,0],[0,1,0],[0.25,1,0],[0.5,1,0],[0.75,1,0],[1,1,0],[0,0.25,0],[0,0.5,0],[0,0.75,0],[1,0.25,0],[1,0.5,0],[1,0.75,0]];outlineConnect=0;fontColor=#232F3E;gradientColor=#945DF2;gradientDirection=north;fillColor=#5A30B5;strokeColor=#ffffff;dashed=0;verticalLabelPosition=bottom;verticalAlign=top;align=center;html=1;fontSize=12;fontStyle=0;aspect=fixed;shape=mxgraph.aws4.resourceIcon;resIcon=mxgraph.aws4.route_53;" vertex="1" parent="1">
          <mxGeometry x="-180" y="479" width="78" height="78" as="geometry" />
        </mxCell>
        <mxCell id="E3v42q9btfGhV8WlOkZw-8" value="Route 53" style="text;html=1;align=center;verticalAlign=middle;resizable=0;points=[];autosize=1;" vertex="1" parent="1">
          <mxGeometry x="-171" y="565" width="60" height="20" as="geometry" />
        </mxCell>
        <mxCell id="E3v42q9btfGhV8WlOkZw-9" value="" style="verticalLabelPosition=bottom;html=1;fillColor=#A153A0;strokeColor=#ffffff;verticalAlign=top;align=center;points=[[0,0.5,0],[0.125,0.25,0],[0.25,0,0],[0.5,0,0],[0.75,0,0],[0.875,0.25,0],[1,0.5,0],[0.875,0.75,0],[0.75,1,0],[0.5,1,0],[0.125,0.75,0]];pointerEvents=1;shape=mxgraph.cisco_safe.compositeIcon;bgIcon=mxgraph.cisco_safe.design.blank_device;resIcon=mxgraph.cisco_safe.design.load_balancer;rotation=90;" vertex="1" parent="1">
          <mxGeometry x="-183.22" y="1033" width="86.43" height="77.78" as="geometry" />
        </mxCell>
        <mxCell id="E3v42q9btfGhV8WlOkZw-10" value="AWS Amplify" style="text;html=1;align=center;verticalAlign=middle;resizable=0;points=[];autosize=1;" vertex="1" parent="1">
          <mxGeometry x="-78" y="760" width="80" height="20" as="geometry" />
        </mxCell>
        <mxCell id="E3v42q9btfGhV8WlOkZw-11" value="Redis" style="text;html=1;align=center;verticalAlign=middle;resizable=0;points=[];autosize=1;" vertex="1" parent="1">
          <mxGeometry x="149" y="1495.75" width="50" height="20" as="geometry" />
        </mxCell>
        <mxCell id="E3v42q9btfGhV8WlOkZw-12" value="API Gateway" style="text;html=1;align=center;verticalAlign=middle;resizable=0;points=[];autosize=1;" vertex="1" parent="1">
          <mxGeometry x="-185" y="949" width="90" height="20" as="geometry" />
        </mxCell>
        <mxCell id="E3v42q9btfGhV8WlOkZw-14" value="" style="shape=image;html=1;verticalAlign=top;verticalLabelPosition=bottom;labelBackgroundColor=#ffffff;imageAspect=0;aspect=fixed;image=https://cdn4.iconfinder.com/data/icons/logos-and-brands/512/367_Vuejs_logo-128.png" vertex="1" parent="1">
          <mxGeometry x="-290" y="662.5" width="90" height="90" as="geometry" />
        </mxCell>
        <mxCell id="E3v42q9btfGhV8WlOkZw-16" value="" style="endArrow=classic;html=1;" edge="1" parent="1">
          <mxGeometry width="50" height="50" relative="1" as="geometry">
            <mxPoint x="-140.96" y="404" as="sourcePoint" />
            <mxPoint x="-141" y="450" as="targetPoint" />
          </mxGeometry>
        </mxCell>
        <mxCell id="E3v42q9btfGhV8WlOkZw-17" value="" style="endArrow=classic;html=1;" edge="1" parent="1">
          <mxGeometry width="50" height="50" relative="1" as="geometry">
            <mxPoint x="-142" y="590" as="sourcePoint" />
            <mxPoint x="-142" y="630" as="targetPoint" />
          </mxGeometry>
        </mxCell>
        <mxCell id="E3v42q9btfGhV8WlOkZw-18" value="" style="points=[[0,0,0],[0.25,0,0],[0.5,0,0],[0.75,0,0],[1,0,0],[0,1,0],[0.25,1,0],[0.5,1,0],[0.75,1,0],[1,1,0],[0,0.25,0],[0,0.5,0],[0,0.75,0],[1,0.25,0],[1,0.5,0],[1,0.75,0]];outlineConnect=0;fontColor=#232F3E;gradientColor=#F78E04;gradientDirection=north;fillColor=#D05C17;strokeColor=#ffffff;dashed=0;verticalLabelPosition=bottom;verticalAlign=top;align=center;html=1;fontSize=12;fontStyle=0;aspect=fixed;shape=mxgraph.aws4.resourceIcon;resIcon=mxgraph.aws4.ec2;" vertex="1" parent="1">
          <mxGeometry x="-180.71" y="1200" width="78" height="78" as="geometry" />
        </mxCell>
        <mxCell id="E3v42q9btfGhV8WlOkZw-19" value="EC2" style="text;html=1;align=center;verticalAlign=middle;resizable=0;points=[];autosize=1;" vertex="1" parent="1">
          <mxGeometry x="-161.71" y="1285" width="40" height="20" as="geometry" />
        </mxCell>
        <mxCell id="E3v42q9btfGhV8WlOkZw-20" value="" style="points=[[0,0,0],[0.25,0,0],[0.5,0,0],[0.75,0,0],[1,0,0],[0,1,0],[0.25,1,0],[0.5,1,0],[0.75,1,0],[1,1,0],[0,0.25,0],[0,0.5,0],[0,0.75,0],[1,0.25,0],[1,0.5,0],[1,0.75,0]];outlineConnect=0;fontColor=#232F3E;gradientColor=#F78E04;gradientDirection=north;fillColor=#D05C17;strokeColor=#ffffff;dashed=0;verticalLabelPosition=bottom;verticalAlign=top;align=center;html=1;fontSize=12;fontStyle=0;aspect=fixed;shape=mxgraph.aws4.resourceIcon;resIcon=mxgraph.aws4.ec2;" vertex="1" parent="1">
          <mxGeometry x="-70.00000000000001" y="1200" width="78" height="78" as="geometry" />
        </mxCell>
        <mxCell id="E3v42q9btfGhV8WlOkZw-21" value="EC2" style="text;html=1;align=center;verticalAlign=middle;resizable=0;points=[];autosize=1;" vertex="1" parent="1">
          <mxGeometry x="-51.000000000000014" y="1285" width="40" height="20" as="geometry" />
        </mxCell>
        <mxCell id="E3v42q9btfGhV8WlOkZw-23" value="" style="endArrow=classic;html=1;" edge="1" parent="1">
          <mxGeometry width="50" height="50" relative="1" as="geometry">
            <mxPoint x="-190" y="1140" as="sourcePoint" />
            <mxPoint x="-250" y="1180" as="targetPoint" />
          </mxGeometry>
        </mxCell>
        <mxCell id="E3v42q9btfGhV8WlOkZw-24" value="" style="endArrow=classic;html=1;" edge="1" parent="1">
          <mxGeometry width="50" height="50" relative="1" as="geometry">
            <mxPoint x="-87" y="1140" as="sourcePoint" />
            <mxPoint x="-30" y="1180" as="targetPoint" />
          </mxGeometry>
        </mxCell>
        <mxCell id="E3v42q9btfGhV8WlOkZw-26" value="" style="endArrow=classic;html=1;" edge="1" parent="1">
          <mxGeometry width="50" height="50" relative="1" as="geometry">
            <mxPoint x="-140" y="1140" as="sourcePoint" />
            <mxPoint x="-140" y="1180" as="targetPoint" />
          </mxGeometry>
        </mxCell>
        <mxCell id="E3v42q9btfGhV8WlOkZw-27" value="" style="endArrow=classic;startArrow=classic;html=1;" edge="1" parent="1">
          <mxGeometry width="50" height="50" relative="1" as="geometry">
            <mxPoint x="42" y="1250" as="sourcePoint" />
            <mxPoint x="82" y="1250" as="targetPoint" />
          </mxGeometry>
        </mxCell>
        <mxCell id="E3v42q9btfGhV8WlOkZw-29" value="" style="endArrow=none;dashed=1;html=1;" edge="1" parent="1">
          <mxGeometry width="50" height="50" relative="1" as="geometry">
            <mxPoint x="-330" y="1190" as="sourcePoint" />
            <mxPoint x="40" y="1190" as="targetPoint" />
          </mxGeometry>
        </mxCell>
        <mxCell id="E3v42q9btfGhV8WlOkZw-30" value="" style="endArrow=none;dashed=1;html=1;" edge="1" parent="1">
          <mxGeometry width="50" height="50" relative="1" as="geometry">
            <mxPoint x="-329" y="1310" as="sourcePoint" />
            <mxPoint x="41.00000000000023" y="1310" as="targetPoint" />
          </mxGeometry>
        </mxCell>
        <mxCell id="E3v42q9btfGhV8WlOkZw-33" value="" style="endArrow=none;dashed=1;html=1;" edge="1" parent="1">
          <mxGeometry width="50" height="50" relative="1" as="geometry">
            <mxPoint x="-330" y="1310" as="sourcePoint" />
            <mxPoint x="-330" y="1190" as="targetPoint" />
          </mxGeometry>
        </mxCell>
        <mxCell id="E3v42q9btfGhV8WlOkZw-34" value="" style="endArrow=none;dashed=1;html=1;" edge="1" parent="1">
          <mxGeometry width="50" height="50" relative="1" as="geometry">
            <mxPoint x="40" y="1308.9999999999998" as="sourcePoint" />
            <mxPoint x="40" y="1188.9999999999998" as="targetPoint" />
          </mxGeometry>
        </mxCell>
        <mxCell id="E3v42q9btfGhV8WlOkZw-38" value="" style="shape=image;html=1;verticalAlign=top;verticalLabelPosition=bottom;labelBackgroundColor=#ffffff;imageAspect=0;aspect=fixed;image=https://cdn4.iconfinder.com/data/icons/logos-brands-5/24/nginx-128.png;dashed=1;" vertex="1" parent="1">
          <mxGeometry x="-183.75" y="662.5" width="90" height="90" as="geometry" />
        </mxCell>
        <mxCell id="E3v42q9btfGhV8WlOkZw-39" value="VueJS" style="text;html=1;align=center;verticalAlign=middle;resizable=0;points=[];autosize=1;" vertex="1" parent="1">
          <mxGeometry x="-270" y="760" width="50" height="20" as="geometry" />
        </mxCell>
        <mxCell id="E3v42q9btfGhV8WlOkZw-40" value="Nginx" style="text;html=1;align=center;verticalAlign=middle;resizable=0;points=[];autosize=1;" vertex="1" parent="1">
          <mxGeometry x="-163.75" y="760" width="50" height="20" as="geometry" />
        </mxCell>
        <mxCell id="E3v42q9btfGhV8WlOkZw-41" value="Front-End Service" style="text;html=1;align=center;verticalAlign=middle;resizable=0;points=[];autosize=1;" vertex="1" parent="1">
          <mxGeometry x="-78" y="800" width="110" height="20" as="geometry" />
        </mxCell>
        <mxCell id="E3v42q9btfGhV8WlOkZw-42" value="" style="endArrow=classic;html=1;" edge="1" parent="1">
          <mxGeometry width="50" height="50" relative="1" as="geometry">
            <mxPoint x="-141.7099999999998" y="801" as="sourcePoint" />
            <mxPoint x="-141.7099999999998" y="851" as="targetPoint" />
          </mxGeometry>
        </mxCell>
        <mxCell id="E3v42q9btfGhV8WlOkZw-43" value="Load Balancer" style="text;html=1;align=center;verticalAlign=middle;resizable=0;points=[];autosize=1;" vertex="1" parent="1">
          <mxGeometry x="-185" y="1120" width="90" height="20" as="geometry" />
        </mxCell>
        <mxCell id="E3v42q9btfGhV8WlOkZw-44" value="" style="endArrow=classic;html=1;" edge="1" parent="1">
          <mxGeometry width="50" height="50" relative="1" as="geometry">
            <mxPoint x="-139.58000000000004" y="970" as="sourcePoint" />
            <mxPoint x="-139.58000000000004" y="1020" as="targetPoint" />
          </mxGeometry>
        </mxCell>
        <mxCell id="E3v42q9btfGhV8WlOkZw-45" value="" style="endArrow=classic;startArrow=classic;html=1;" edge="1" parent="1">
          <mxGeometry width="50" height="50" relative="1" as="geometry">
            <mxPoint x="-250" y="1370" as="sourcePoint" />
            <mxPoint x="-250" y="1317" as="targetPoint" />
          </mxGeometry>
        </mxCell>
        <mxCell id="E3v42q9btfGhV8WlOkZw-48" value="" style="endArrow=classic;startArrow=classic;html=1;" edge="1" parent="1">
          <mxGeometry width="50" height="50" relative="1" as="geometry">
            <mxPoint x="-247" y="1370" as="sourcePoint" />
            <mxPoint x="-140" y="1320" as="targetPoint" />
          </mxGeometry>
        </mxCell>
        <mxCell id="E3v42q9btfGhV8WlOkZw-49" value="" style="endArrow=classic;startArrow=classic;html=1;" edge="1" parent="1">
          <mxGeometry width="50" height="50" relative="1" as="geometry">
            <mxPoint x="-231" y="1370" as="sourcePoint" />
            <mxPoint x="-30" y="1320" as="targetPoint" />
          </mxGeometry>
        </mxCell>
        <mxCell id="E3v42q9btfGhV8WlOkZw-52" style="edgeStyle=orthogonalEdgeStyle;rounded=0;orthogonalLoop=1;jettySize=auto;html=1;exitX=0.5;exitY=1;exitDx=0;exitDy=0;" edge="1" parent="1" source="E3v42q9btfGhV8WlOkZw-51" target="E3v42q9btfGhV8WlOkZw-51">
          <mxGeometry relative="1" as="geometry" />
        </mxCell>
        <mxCell id="E3v42q9btfGhV8WlOkZw-53" value="" style="pointerEvents=1;shadow=0;dashed=0;html=1;strokeColor=none;fillColor=#DF8C42;labelPosition=center;verticalLabelPosition=bottom;verticalAlign=top;align=center;outlineConnect=0;shape=mxgraph.veeam2.aws_s3;" vertex="1" parent="1">
          <mxGeometry x="-290" y="1406.75" width="76.5" height="76.5" as="geometry" />
        </mxCell>
        <mxCell id="E3v42q9btfGhV8WlOkZw-54" value="" style="endArrow=classic;startArrow=classic;html=1;" edge="1" parent="1">
          <mxGeometry width="50" height="50" relative="1" as="geometry">
            <mxPoint x="-200" y="1450.75" as="sourcePoint" />
            <mxPoint x="-160" y="1450.75" as="targetPoint" />
          </mxGeometry>
        </mxCell>
        <mxCell id="E3v42q9btfGhV8WlOkZw-55" value="" style="endArrow=classic;startArrow=classic;html=1;exitX=1.004;exitY=0.599;exitDx=0;exitDy=0;exitPerimeter=0;" edge="1" parent="1">
          <mxGeometry width="50" height="50" relative="1" as="geometry">
            <mxPoint x="-69.68000000000006" y="1451.1699999999998" as="sourcePoint" />
            <mxPoint x="-20" y="1450.75" as="targetPoint" />
          </mxGeometry>
        </mxCell>
        <mxCell id="E3v42q9btfGhV8WlOkZw-58" value="Back-End Service" style="text;html=1;align=center;verticalAlign=middle;resizable=0;points=[];autosize=1;" vertex="1" parent="1">
          <mxGeometry x="-108" y="1540" width="110" height="20" as="geometry" />
        </mxCell>
        <mxCell id="E3v42q9btfGhV8WlOkZw-59" value="S3 Bucket" style="text;html=1;align=center;verticalAlign=middle;resizable=0;points=[];autosize=1;" vertex="1" parent="1">
          <mxGeometry x="-286.75" y="1495.75" width="70" height="20" as="geometry" />
        </mxCell>
        <mxCell id="E3v42q9btfGhV8WlOkZw-60" value="Flask" style="text;html=1;align=center;verticalAlign=middle;resizable=0;points=[];autosize=1;" vertex="1" parent="1">
          <mxGeometry x="-130" y="1495.75" width="40" height="20" as="geometry" />
        </mxCell>
        <mxCell id="E3v42q9btfGhV8WlOkZw-65" value="" style="points=[[0,0,0],[0.25,0,0],[0.5,0,0],[0.75,0,0],[1,0,0],[0,1,0],[0.25,1,0],[0.5,1,0],[0.75,1,0],[1,1,0],[0,0.25,0],[0,0.5,0],[0,0.75,0],[1,0.25,0],[1,0.5,0],[1,0.75,0]];outlineConnect=0;fontColor=#232F3E;gradientColor=#F78E04;gradientDirection=north;fillColor=#D05C17;strokeColor=#ffffff;dashed=0;verticalLabelPosition=bottom;verticalAlign=top;align=center;html=1;fontSize=12;fontStyle=0;aspect=fixed;shape=mxgraph.aws4.resourceIcon;resIcon=mxgraph.aws4.ec2;" vertex="1" parent="1">
          <mxGeometry x="111.99999999999999" y="675" width="78" height="78" as="geometry" />
        </mxCell>
        <mxCell id="E3v42q9btfGhV8WlOkZw-66" value="EC2" style="text;html=1;align=center;verticalAlign=middle;resizable=0;points=[];autosize=1;" vertex="1" parent="1">
          <mxGeometry x="131" y="760" width="40" height="20" as="geometry" />
        </mxCell>
        <mxCell id="E3v42q9btfGhV8WlOkZw-68" value="" style="endArrow=classic;startArrow=classic;html=1;" edge="1" parent="1">
          <mxGeometry width="50" height="50" relative="1" as="geometry">
            <mxPoint x="42" y="714.41" as="sourcePoint" />
            <mxPoint x="102" y="714.41" as="targetPoint" />
          </mxGeometry>
        </mxCell>
      </root>
    </mxGraphModel>
  </diagram>
</mxfile>
